<?xml version="1.0" encoding="utf-8"?>
<!-- Generator: Adobe Illustrator 25.4.1, SVG Export Plug-In . SVG Version: 6.00 Build 0)  -->
<svg version="1.1" id="Слой_3" xmlns="http://www.w3.org/2000/svg" xmlns:xlink="http://www.w3.org/1999/xlink" x="0px" y="0px"
	 viewBox="0 0 566.9 128.8" style="enable-background:new 0 0 566.9 128.8;" xml:space="preserve">
<style type="text/css">
	.st0{fill:#0993BA;}
</style>
<g>
	<g>
		<path class="st0" d="M95.1,38.2L62.7,19.5c-1.1-0.7-2.6-0.7-3.7,0L26.6,38.2c-1.1,0.7-1.9,1.9-1.9,3.2v37.4c0,1.3,0.7,2.6,1.9,3.2
			L59,100.8c0.6,0.3,1.2,0.5,1.9,0.5c0.6,0,1.3-0.2,1.9-0.5l32.4-18.7c1.1-0.7,1.9-1.9,1.9-3.2V41.4C97,40.1,96.3,38.9,95.1,38.2z
			 M60.9,23.7l29.3,16.9L60.9,57.5L31.6,40.6L60.9,23.7z M92.4,78.4L63.1,95.2V82.6c0-1.3-1-2.3-2.3-2.3c-1.3,0-2.3,1-2.3,2.3v12.7
			L29.3,78.4V44.6L59,61.7c0.6,0.3,1.2,0.5,1.9,0.5c0.6,0,1.3-0.2,1.9-0.5l29.7-17.1V78.4z"/>
		<path class="st0" d="M60.9,69c-1.4,0-2.5,1.1-2.5,2.5s1.1,2.5,2.5,2.5c1.4,0,2.5-1.1,2.5-2.5S62.2,69,60.9,69z"/>
		<path class="st0" d="M111.2,20.4c-3.1,0-5.9,1.4-7.8,3.5L62.7,0.5c-1.1-0.7-2.6-0.7-3.7,0L18.4,23.9c-1.9-2.1-4.7-3.5-7.8-3.5
			C4.7,20.4,0,25.2,0,31c0,5,3.5,9.3,8.3,10.3v47.1c0,1.3,0.7,2.6,1.9,3.2L50.8,115c-0.3,1-0.5,2.1-0.5,3.2
			c0,5.8,4.7,10.6,10.6,10.6c5.8,0,10.6-4.7,10.6-10.6c0-1.1-0.2-2.2-0.5-3.2l40.6-23.5c1.1-0.7,1.9-1.9,1.9-3.2V41.3
			c4.7-1,8.3-5.3,8.3-10.3C121.7,25.2,117,20.4,111.2,20.4z M4.6,31c0-3.3,2.7-6,6-6s6,2.7,6,6c0,3.3-2.7,6-6,6S4.6,34.3,4.6,31z
			 M60.9,124.2c-3.3,0-6-2.7-6-6c0-3.3,2.7-6,6-6c3.3,0,6,2.7,6,6C66.9,121.5,64.2,124.2,60.9,124.2z M108.9,87.9l-40.2,23.2
			c-1.9-2.1-4.7-3.4-7.8-3.4c-3.1,0-5.8,1.3-7.8,3.4L12.8,87.9V41.3c4.7-1,8.3-5.3,8.3-10.3c0-1.1-0.2-2.1-0.5-3.1L60.9,4.7
			l40.2,23.2c-0.3,1-0.5,2-0.5,3.1c0,5,3.5,9.3,8.3,10.3V87.9z M111.2,37c-3.3,0-6-2.7-6-6c0-3.3,2.7-6,6-6c3.3,0,6,2.7,6,6
			C117.2,34.3,114.5,37,111.2,37z"/>
	</g>
	<g>
		<path class="st0" d="M175.1,99.8l-19-62.1H167l9.9,35.8l3.7,13.3c0.2-0.7,1.2-4.9,3.2-12.8l9.9-36.4h10.8l9.3,36l3.1,11.9l3.6-12
			l10.6-35.9h10.2l-19.4,62.1H211l-9.9-37.2L198.7,52l-12.6,47.8H175.1z"/>
		<path class="st0" d="M292.6,79.8l10.9,1.3c-1.7,6.4-4.9,11.3-9.5,14.8c-4.6,3.5-10.6,5.3-17.8,5.3c-9.1,0-16.3-2.8-21.6-8.4
			c-5.3-5.6-8-13.4-8-23.5c0-10.4,2.7-18.6,8.1-24.3s12.4-8.7,20.9-8.7c8.3,0,15.1,2.8,20.3,8.5s7.9,13.6,7.9,23.9
			c0,0.6,0,1.6-0.1,2.8h-46.3c0.4,6.8,2.3,12,5.8,15.7c3.5,3.6,7.8,5.4,13,5.4c3.9,0,7.2-1,9.9-3C288.9,87.5,291,84.2,292.6,79.8z
			 M258.1,62.8h34.7c-0.5-5.2-1.8-9.1-4-11.8c-3.4-4.1-7.7-6.1-13-6.1c-4.8,0-8.9,1.6-12.2,4.9C260.3,53,258.4,57.3,258.1,62.8z"/>
		<path class="st0" d="M326.4,99.8h-9.8V14.1h10.5v30.6c4.4-5.6,10.1-8.4,17-8.4c3.8,0,7.4,0.8,10.8,2.3c3.4,1.5,6.2,3.7,8.4,6.5
			c2.2,2.8,3.9,6.1,5.2,10.1c1.2,3.9,1.9,8.1,1.9,12.6c0,10.6-2.6,18.9-7.9,24.7c-5.3,5.8-11.6,8.7-18.9,8.7
			c-7.3,0-13.1-3.1-17.2-9.2V99.8z M326.3,68.3c0,7.4,1,12.8,3,16.1c3.3,5.4,7.8,8.1,13.4,8.1c4.6,0,8.6-2,11.9-6
			c3.4-4,5-9.9,5-17.9c0-8.1-1.6-14.1-4.8-17.9s-7.1-5.8-11.7-5.8c-4.6,0-8.6,2-11.9,6C328,54.9,326.3,60.7,326.3,68.3z"/>
		<path class="st0" d="M380.4,77.1l10.5-1.4c1.2,6,3.3,10.3,6.2,12.9c2.9,2.6,6.4,3.9,10.6,3.9c4.9,0,9.1-1.7,12.5-5.1
			c3.4-3.4,5.1-7.7,5.1-12.7c0-4.8-1.6-8.8-4.7-12c-3.2-3.1-7.2-4.7-12-4.7c-2,0-4.5,0.4-7.4,1.2l1.2-9.2c0.7,0.1,1.3,0.1,1.7,0.1
			c4.5,0,8.5-1.2,12.1-3.5c3.6-2.3,5.4-5.9,5.4-10.8c0-3.9-1.3-7.1-3.9-9.6s-6-3.8-10.1-3.8c-4.1,0-7.5,1.3-10.2,3.9
			c-2.7,2.6-4.5,6.4-5.3,11.6l-10.5-1.9c1.3-7.1,4.2-12.5,8.8-16.4s10.2-5.8,17-5.8c4.7,0,9,1,12.9,3s6.9,4.7,9,8.2
			c2.1,3.5,3.1,7.2,3.1,11c0,3.7-1,7.1-3,10.1c-2,3-4.9,5.5-8.8,7.2c5.1,1.2,9,3.6,11.8,7.3c2.8,3.7,4.2,8.3,4.2,13.8
			c0,7.5-2.7,13.8-8.2,19c-5.5,5.2-12.4,7.8-20.7,7.8c-7.5,0-13.8-2.2-18.7-6.7C384,90.1,381.1,84.3,380.4,77.1z"/>
		<path class="st0" d="M446,68.7c0-11.5,3.2-20,9.6-25.5c5.3-4.6,11.8-6.9,19.5-6.9c8.5,0,15.5,2.8,20.9,8.4
			c5.4,5.6,8.1,13.3,8.1,23.2c0,8-1.2,14.3-3.6,18.9c-2.4,4.6-5.9,8.1-10.5,10.7c-4.6,2.5-9.6,3.8-15,3.8c-8.7,0-15.7-2.8-21.1-8.4
			C448.7,87.2,446,79.2,446,68.7z M456.8,68.7c0,8,1.7,13.9,5.2,17.9c3.5,4,7.8,5.9,13.1,5.9c5.2,0,9.6-2,13-6s5.2-10,5.2-18.2
			c0-7.7-1.7-13.5-5.2-17.5c-3.5-4-7.8-5.9-13-5.9c-5.3,0-9.6,2-13.1,5.9S456.8,60.8,456.8,68.7z"/>
		<path class="st0" d="M516.5,99.8V37.7h9.5v8.8c4.6-6.8,11.1-10.2,19.8-10.2c3.7,0,7.2,0.7,10.3,2c3.1,1.3,5.5,3.1,7,5.3
			s2.7,4.8,3.3,7.8c0.4,1.9,0.6,5.4,0.6,10.2v38.2h-10.5V62c0-4.3-0.4-7.5-1.2-9.6c-0.8-2.1-2.3-3.8-4.4-5.1
			c-2.1-1.3-4.5-1.9-7.3-1.9c-4.5,0-8.4,1.4-11.6,4.3c-3.3,2.8-4.9,8.2-4.9,16.2v33.9H516.5z"/>
	</g>
</g>
</svg>
