<svg width="180" height="35" viewBox="0 0 180 35" fill="none" xmlns="http://www.w3.org/2000/svg">
<g clip-path="url(#clip0_2_92)">
<path d="M0 34.0157H4.0712V22.9477H16.4329V34.0157H20.504V8.19031H16.4329V19.2584H4.0712V8.19031H0V34.0157Z" fill="#F5F5F5"/>
<path d="M26.2763 34.0157H43.6714V30.3264H30.3476V22.9108H43.0053V19.2214H30.3476V11.8797H43.4493V8.19031H26.2763V34.0157Z" fill="#F5F5F5"/>
<path d="M59.6731 5.49712C63.0041 5.49712 65.2248 3.28351 65.2248 0H62.338C62.338 1.77089 61.2647 2.95148 59.6731 2.95148C58.0818 2.95148 57.0454 1.77089 57.0454 0H54.1586C54.1586 3.28351 56.3793 5.49712 59.6731 5.49712ZM66.6312 8.19034L52.9742 26.7846V8.19034H48.903V34.0158H52.7522L66.4093 15.4215V34.0158H70.4804V8.19034H66.6312Z" fill="#F5F5F5"/>
<path d="M98.7654 8.19031L90.0307 27.8176L81.2962 8.19031H76.2627V34.0157H80.334V16.1961L88.2542 34.0157H91.8443L99.7276 16.1961V34.0157H103.799V8.19031H98.7654Z" fill="#F5F5F5"/>
<path d="M122.318 8.19031H117.766L107.106 34.0157H111.437L113.916 27.8545H126.167L128.647 34.0157H132.977L122.318 8.19031ZM115.397 24.1652L120.023 12.7282L124.65 24.1652H115.397Z" fill="#F5F5F5"/>
<path d="M136.225 34.0157H140.296V25.1613H146.292C151.917 25.1613 155.434 21.8409 155.434 16.6758C155.434 11.5107 151.917 8.19031 146.292 8.19031H136.225V34.0157ZM140.296 21.472V11.8797H146.329C149.475 11.8797 151.251 13.6874 151.251 16.6758C151.251 19.6642 149.475 21.472 146.329 21.472H140.296Z" fill="#F5F5F5"/>
<path d="M159.718 34.0157H163.789V23.0952H167.158L174.855 34.0157H180L170.858 20.9555L179.481 8.19031H174.596L167.158 19.406H163.789V8.19031H159.718V34.0157Z" fill="#F5F5F5"/>
</g>
<defs>
<clipPath id="clip0_2_92">
<rect width="180" height="34.0158" fill="white"/>
</clipPath>
</defs>
</svg>
