<svg width="200" height="31" viewBox="0 0 200 31" fill="none" xmlns="http://www.w3.org/2000/svg">
<path d="M21.676 10.3726V18.7396C21.676 19.3065 21.7937 19.7181 22.0294 19.9741C22.2817 20.2119 22.7023 20.3308 23.2912 20.3308H25.0579V22.9368H22.7864C21.491 22.9368 20.4983 22.6076 19.8084 21.9492C19.1186 21.2909 18.7736 20.2211 18.7736 18.7396V10.3726H17.1332V7.82152H18.7736V4.06323H21.676V7.82152H25.0579V10.3726H21.676Z" fill="#F5F5F5"/>
<path d="M25.9935 15.3107C25.9935 13.7926 26.2795 12.4485 26.8515 11.2779C27.4404 10.1076 28.2312 9.20225 29.2239 8.56221C30.2334 7.90385 31.3439 7.57458 32.5554 7.57458C33.649 7.57458 34.5997 7.81229 35.4072 8.28788C36.2317 8.74497 36.8878 9.32119 37.3759 10.0162V7.82154H40.2782V22.9368H37.3759V20.6874C36.8878 21.4006 36.2232 21.9949 35.382 22.4705C34.5408 22.9459 33.5816 23.1838 32.5049 23.1838C31.3102 23.1838 30.2166 22.8545 29.2239 22.1962C28.2312 21.5195 27.4404 20.5868 26.8515 19.3981C26.2795 18.1909 25.9935 16.8287 25.9935 15.3107ZM37.3759 15.3655C37.3759 14.3229 37.1739 13.4176 36.77 12.6496C36.383 11.8815 35.8699 11.2963 35.2305 10.8939C34.5912 10.4916 33.9014 10.2905 33.1611 10.2905C32.4208 10.2905 31.7309 10.4918 31.0915 10.8939C30.4521 11.2779 29.9307 11.8542 29.5268 12.6222C29.1398 13.3719 28.9463 14.2682 28.9463 15.3106C28.9463 16.3531 29.1398 17.2675 29.5268 18.0539C29.9307 18.8402 30.4521 19.4438 31.0915 19.8645C31.7477 20.2668 32.4375 20.4679 33.1611 20.4679C33.9014 20.4679 34.5912 20.2668 35.2305 19.8645C35.8699 19.4621 36.383 18.8768 36.77 18.1088C37.1739 17.3222 37.3759 16.4081 37.3759 15.3655Z" fill="#F5F5F5"/>
<path d="M48.8019 15.3929L55.2124 22.9368H51.3257L46.1771 16.4353V22.9368H43.3V2.63684H46.1771V14.4328L51.2248 7.82154H55.2124L48.8019 15.3929Z" fill="#F5F5F5"/>
<path d="M69.2627 15.0089C69.2627 15.5758 69.229 16.0877 69.1616 16.545H58.5365C58.6206 17.7521 59.0328 18.7215 59.7731 19.4529C60.5135 20.1845 61.422 20.5502 62.4989 20.5502C64.0467 20.5502 65.1405 19.8461 65.7797 18.4379H68.8841C68.4634 19.8278 67.6979 20.9708 66.5874 21.8669C65.4938 22.7448 64.131 23.1838 62.4989 23.1838C61.1696 23.1838 59.9751 22.8638 58.915 22.2235C57.872 21.5652 57.0474 20.6508 56.4417 19.4803C55.8529 18.2916 55.5585 16.9201 55.5585 15.3655C55.5585 13.8109 55.8444 12.4485 56.4165 11.2779C57.0054 10.0892 57.8214 9.17469 58.8646 8.53465C59.9245 7.89461 61.1361 7.57458 62.4989 7.57458C63.8112 7.57458 64.9805 7.88554 66.0069 8.50727C67.0333 9.12918 67.8325 10.0069 68.4045 11.1409C68.9766 12.2565 69.2627 13.5458 69.2627 15.0089ZM66.2593 14.0212C66.2425 12.8692 65.864 11.9455 65.1237 11.2506C64.3834 10.5556 63.4662 10.208 62.3726 10.208C61.38 10.208 60.5302 10.5556 59.8236 11.2506C59.117 11.9272 58.6963 12.8508 58.5617 14.0212H66.2593Z" fill="#F5F5F5"/>
<path d="M88.1707 7.57458C89.2644 7.57458 90.2403 7.82154 91.0983 8.31526C91.9733 8.80898 92.6547 9.54058 93.1426 10.5099C93.6474 11.4792 93.8997 12.6496 93.8997 14.0212V22.9368H91.0478V14.4876C91.0478 13.1342 90.7365 12.1009 90.114 11.3876C89.4915 10.6562 88.6419 10.2905 87.565 10.2905C86.4882 10.2905 85.6302 10.6562 84.9908 11.3876C84.3682 12.1009 84.057 13.1342 84.057 14.4876V22.9368H81.205V14.4876C81.205 13.1342 80.8938 12.1009 80.2712 11.3876C79.6487 10.6562 78.799 10.2905 77.7222 10.2905C76.6455 10.2905 75.7872 10.6562 75.1478 11.3876C74.5253 12.1009 74.214 13.1342 74.214 14.4876V22.9368H71.3369V7.82154H74.214V9.54983C74.6853 8.92792 75.2825 8.44326 76.0061 8.09568C76.7295 7.74828 77.5035 7.57458 78.3279 7.57458C79.4384 7.57458 80.431 7.8306 81.306 8.34263C82.1809 8.85485 82.8539 9.59552 83.325 10.5646C83.7457 9.65028 84.4019 8.92792 85.2935 8.39757C86.1853 7.84891 87.1445 7.57458 88.1707 7.57458Z" fill="#F5F5F5"/>
<path d="M109.322 7.82153L100.791 30.0418H97.8133L100.64 22.6899L95.1633 7.82153H98.3684L102.28 19.3432L106.344 7.82153H109.322Z" fill="#F5F5F5"/>
<path d="M109.777 15.3655C109.777 13.8109 110.063 12.4485 110.635 11.2779C111.224 10.0892 112.031 9.17469 113.058 8.53465C114.084 7.89461 115.262 7.57458 116.591 7.57458C118.274 7.57458 119.662 8.01337 120.755 8.89129C121.866 9.75091 122.614 10.9855 123.001 12.5948H119.897C119.645 11.8449 119.241 11.2596 118.686 10.8392C118.131 10.4185 117.432 10.2082 116.591 10.2082C115.413 10.2082 114.471 10.6653 113.764 11.5796C113.075 12.4759 112.73 13.7378 112.73 15.3655C112.73 16.9932 113.075 18.2642 113.764 19.1785C114.471 20.0929 115.413 20.5502 116.591 20.5502C118.257 20.5502 119.359 19.7546 119.897 18.1635H123.001C122.598 19.6998 121.841 20.9252 120.73 21.8395C119.62 22.7358 118.24 23.1838 116.591 23.1838C115.262 23.1838 114.084 22.8638 113.058 22.2235C112.031 21.5652 111.224 20.6508 110.635 19.4803C110.063 18.2916 109.777 16.9201 109.777 15.3655Z" fill="#F5F5F5"/>
<path d="M131.143 23.1838C129.831 23.1838 128.645 22.8638 127.585 22.2235C126.525 21.5652 125.692 20.6508 125.086 19.4803C124.481 18.2916 124.178 16.9201 124.178 15.3655C124.178 13.8292 124.489 12.4666 125.112 11.2779C125.734 10.0892 126.584 9.17469 127.661 8.53465C128.738 7.89461 129.941 7.57458 131.27 7.57458C132.599 7.57458 133.802 7.89461 134.879 8.53465C135.956 9.17469 136.805 10.0892 137.428 11.2779C138.05 12.4666 138.362 13.8292 138.362 15.3655C138.362 16.9016 138.042 18.2642 137.402 19.4529C136.763 20.6416 135.888 21.5652 134.778 22.2235C133.684 22.8638 132.473 23.1838 131.143 23.1838ZM131.143 20.4679C131.884 20.4679 132.574 20.2759 133.213 19.8918C133.869 19.5078 134.399 18.9316 134.803 18.1635C135.207 17.3955 135.409 16.4628 135.409 15.3655C135.409 14.2682 135.215 13.3446 134.828 12.5948C134.441 11.8266 133.928 11.2506 133.289 10.8665C132.649 10.4825 131.959 10.2903 131.219 10.2903C130.479 10.2903 129.789 10.4825 129.15 10.8665C128.527 11.2506 128.031 11.8266 127.661 12.5948C127.29 13.3446 127.105 14.2682 127.105 15.3653C127.105 16.9932 127.484 18.2549 128.241 19.1512C129.015 20.0289 129.983 20.4679 131.143 20.4679Z" fill="#F5F5F5"/>
<path d="M139.49 15.3107C139.49 13.7926 139.776 12.4485 140.348 11.2779C140.937 10.1076 141.727 9.20225 142.72 8.56221C143.73 7.90385 144.849 7.57458 146.077 7.57458C146.985 7.57458 147.877 7.79398 148.752 8.23294C149.644 8.65359 150.35 9.22056 150.872 9.93367V2.63684H153.774V22.9368H150.872V20.6599C150.401 21.3915 149.745 21.9949 148.903 22.4705C148.079 22.9459 147.128 23.1838 146.052 23.1838C144.84 23.1838 143.73 22.8545 142.72 22.1962C141.727 21.5195 140.937 20.5868 140.348 19.3981C139.776 18.1909 139.49 16.8287 139.49 15.3107ZM150.872 15.3655C150.872 14.3229 150.67 13.4176 150.266 12.6496C149.879 11.8815 149.366 11.2963 148.727 10.8939C148.087 10.4916 147.398 10.2905 146.657 10.2905C145.917 10.2905 145.227 10.4918 144.588 10.8939C143.948 11.2779 143.427 11.8542 143.023 12.6222C142.636 13.3719 142.442 14.2682 142.442 15.3106C142.442 16.3531 142.636 17.2675 143.023 18.0539C143.427 18.8402 143.948 19.4438 144.588 19.8645C145.244 20.2668 145.934 20.4679 146.657 20.4679C147.398 20.4679 148.087 20.2668 148.727 19.8645C149.366 19.4621 149.879 18.8768 150.266 18.1088C150.67 17.3222 150.872 16.4081 150.872 15.3655Z" fill="#F5F5F5"/>
<path d="M169.541 15.0089C169.541 15.5758 169.508 16.0877 169.441 16.545H158.815C158.899 17.7521 159.312 18.7215 160.052 19.4529C160.792 20.1845 161.701 20.5502 162.778 20.5502C164.326 20.5502 165.419 19.8461 166.059 18.4379H169.162C168.742 19.8278 167.976 20.9708 166.865 21.8669C165.772 22.7448 164.41 23.1838 162.778 23.1838C161.448 23.1838 160.254 22.8638 159.194 22.2235C158.151 21.5652 157.326 20.6508 156.721 19.4803C156.132 18.2916 155.837 16.9201 155.837 15.3655C155.837 13.8109 156.123 12.4485 156.695 11.2779C157.284 10.0892 158.1 9.17469 159.143 8.53465C160.203 7.89461 161.415 7.57458 162.778 7.57458C164.09 7.57458 165.259 7.88554 166.286 8.50727C167.312 9.12918 168.111 10.0069 168.684 11.1409C169.256 12.2565 169.541 13.5458 169.541 15.0089ZM166.538 14.0212C166.521 12.8692 166.143 11.9455 165.402 11.2506C164.662 10.5556 163.745 10.208 162.651 10.208C161.659 10.208 160.809 10.5556 160.102 11.2506C159.396 11.9272 158.975 12.8508 158.841 14.0212H166.538Z" fill="#F5F5F5"/>
<path d="M5.40205 11.8404L3.80735 13.5738L5.40205 15.3071C5.41072 15.3171 5.41956 15.3269 5.42857 15.3367L14.4248 25.1152L13.6683 25.9376C12.7725 26.9111 11.3204 26.9111 10.4248 25.9376L0.671826 15.3367C-0.223942 14.363 -0.223942 12.7847 0.671826 11.811L10.4248 1.2101C11.3204 0.236443 12.7725 0.236443 13.6683 1.2101L14.4248 2.03255L5.42874 11.811C5.41977 11.8207 5.41087 11.8305 5.40205 11.8404Z" fill="#F5F5F5"/>
<path d="M194.599 11.8404L196.194 13.5738L194.599 15.3071C194.589 15.3171 194.581 15.3269 194.572 15.3367L185.576 25.1152L186.332 25.9376C187.228 26.9111 188.681 26.9111 189.577 25.9376L199.328 15.3367C200.224 14.363 200.224 12.7847 199.328 11.811L189.577 1.2101C188.681 0.236443 187.228 0.236443 186.332 1.2101L185.576 2.03255L194.572 11.811C194.581 11.8208 194.589 11.8306 194.599 11.8404Z" fill="#F5F5F5"/>
<path fill-rule="evenodd" clip-rule="evenodd" d="M177.146 26.2167C175.351 25.6765 174.298 23.6565 174.795 21.7052L180.324 0C182.118 0.540318 183.171 2.56016 182.674 4.51184L177.146 26.2167Z" fill="#F5F5F5"/>
</svg>
