<svg width="178" height="57" viewBox="0 0 178 57" fill="none" xmlns="http://www.w3.org/2000/svg">
<g clip-path="url(#clip0_2_124)">
<path d="M70.1568 15.3875V18.4408H69.0077V16.4588H61.6431V7.67407H62.8444V15.334H67.5975V7.67407H68.7988V15.334H70.1568V15.3875Z" fill="white"/>
<path d="M77.2607 13.5126H72.0375C72.1942 14.691 73.0821 15.4409 74.3879 15.4409C75.1714 15.4409 75.7982 15.1731 76.2683 14.6374L76.895 15.4409C76.3205 16.1373 75.4326 16.5122 74.3357 16.5122C72.2464 16.5122 70.8362 15.1195 70.8362 13.1376C70.8362 11.1557 72.1942 9.76294 74.0745 9.76294C75.9549 9.76294 77.2607 11.1557 77.2607 13.1912C77.3129 13.2983 77.3129 13.4054 77.2607 13.5126ZM72.0375 12.6555H76.216C76.1116 11.5306 75.2759 10.7271 74.1268 10.7271C72.9777 10.7807 72.142 11.5306 72.0375 12.6555Z" fill="white"/>
<path d="M79.1404 9.81665H80.2895V12.6557H83.9979V9.81665H85.147V16.4588H83.9979V13.6734H80.2895V16.4588H79.1404V9.81665Z" fill="white"/>
<path d="M92.2508 10.888H89.9004V16.4588H88.7513V10.888H86.4009V9.81665H92.3031V10.888H92.2508Z" fill="white"/>
<path d="M100.19 13.1376C100.19 15.1731 98.832 16.5123 96.8995 16.5123C95.9593 16.5123 95.1758 16.1373 94.6535 15.4409V18.8691H93.4521V9.81651H94.6012V10.8878C95.1236 10.1379 95.9593 9.76294 96.8995 9.76294C98.7798 9.76294 100.19 11.1021 100.19 13.1376ZM98.9887 13.1376C98.9887 11.7449 98.0485 10.7807 96.795 10.7807C95.5414 10.7807 94.6012 11.6913 94.6012 13.1376C94.6012 14.5303 95.5414 15.4945 96.795 15.4945C98.0485 15.4945 98.9887 14.5303 98.9887 13.1376Z" fill="white"/>
<path d="M109.958 10.888H107.607V16.4588H106.458V10.888H104.108V9.81665H110.01V10.888H109.958Z" fill="white"/>
<path d="M116.748 13.5126H111.472C111.629 14.691 112.517 15.4409 113.823 15.4409C114.606 15.4409 115.233 15.1731 115.703 14.6374L116.33 15.4409C115.755 16.1373 114.867 16.5122 113.771 16.5122C111.681 16.5122 110.271 15.1195 110.271 13.1376C110.271 11.1557 111.629 9.76294 113.509 9.76294C115.39 9.76294 116.696 11.1557 116.696 13.1912C116.748 13.2983 116.748 13.4054 116.748 13.5126ZM111.472 12.6555H115.651C115.546 11.5306 114.711 10.7271 113.562 10.7271C112.413 10.7807 111.577 11.5306 111.472 12.6555Z" fill="white"/>
<path d="M122.441 16.4588L120.56 13.9412L118.68 16.4588H117.374L119.934 13.0842L117.479 9.81665H118.785L120.56 12.2271L122.336 9.81665H123.642L121.187 13.0842L123.747 16.4588H122.441Z" fill="white"/>
<path d="M125 9.81665H126.149V12.6557H129.858V9.81665H131.007V16.4588H129.858V13.6734H126.149V16.4588H125V9.81665Z" fill="white"/>
<path d="M132.731 13.1376C132.731 11.1557 134.141 9.76294 136.126 9.76294C138.111 9.76294 139.469 11.1557 139.469 13.1376C139.469 15.1195 138.059 16.5122 136.126 16.5122C134.194 16.5122 132.731 15.1195 132.731 13.1376ZM138.268 13.1376C138.268 11.7449 137.328 10.7807 136.074 10.7807C134.82 10.7807 133.88 11.6913 133.88 13.1376C133.88 14.5303 134.82 15.4945 136.074 15.4945C137.328 15.4945 138.268 14.5303 138.268 13.1376Z" fill="white"/>
<path d="M146.624 9.81665V16.4588H145.475V10.888H142.707L142.655 12.3878C142.55 14.7447 142.237 16.6195 140.774 16.6195C140.566 16.6195 140.304 16.566 140.043 16.5124L140.095 15.4946C140.2 15.4946 140.304 15.5482 140.409 15.5482C141.453 15.5482 141.506 13.9412 141.61 12.3343L141.715 9.87022H146.624V9.81665Z" fill="white"/>
<path d="M148.295 13.1376C148.295 11.1557 149.706 9.76294 151.69 9.76294C153.675 9.76294 155.033 11.1557 155.033 13.1376C155.033 15.1195 153.623 16.5122 151.69 16.5122C149.758 16.5122 148.295 15.1195 148.295 13.1376ZM153.884 13.1376C153.884 11.7449 152.944 10.7807 151.69 10.7807C150.437 10.7807 149.497 11.6913 149.497 13.1376C149.497 14.5303 150.437 15.4945 151.69 15.4945C152.944 15.4945 153.884 14.5303 153.884 13.1376Z" fill="white"/>
<path d="M161.51 10.888H157.906V16.4588H156.757V9.81665H161.51V10.888Z" fill="white"/>
<path d="M162.711 9.81665H163.861V14.6376L167.83 9.81665H168.875V16.4588H167.726V11.6379L163.756 16.4588H162.659V9.81665H162.711Z" fill="white"/>
<path d="M171.173 9.81677H172.322V14.6377L176.292 9.81677H177.336V16.4589H176.187V11.638L172.217 16.4589H171.121V9.81677H171.173ZM172.322 7.24561H173.105C173.105 7.8884 173.576 8.26337 174.202 8.26337C174.881 8.26337 175.299 7.8884 175.351 7.24561H176.187C176.187 8.3705 175.456 8.95972 174.255 8.95972C173.053 8.95972 172.322 8.3705 172.322 7.24561Z" fill="white"/>
<path d="M68.1722 26.3149C68.1722 28.3504 66.8142 29.6895 64.8816 29.6895C63.9415 29.6895 63.158 29.3146 62.6357 28.6182V32.0464H61.4866V22.9938H62.6357V24.0651C63.158 23.3152 63.9937 22.9402 64.9338 22.9402C66.8142 22.9402 68.1722 24.2794 68.1722 26.3149ZM67.0231 26.3149C67.0231 24.9222 66.0829 23.958 64.8294 23.958C63.5758 23.958 62.6357 24.8686 62.6357 26.3149C62.6357 27.7076 63.5758 28.6718 64.8294 28.6718C66.0307 28.6718 67.0231 27.7612 67.0231 26.3149Z" fill="white"/>
<path d="M74.9101 25.6185V29.636H73.8132V28.7789C73.4476 29.3681 72.7163 29.7431 71.6717 29.7431C70.2092 29.7431 69.269 28.9396 69.269 27.8147C69.269 26.7434 69.9481 25.8864 71.8806 25.8864H73.761V25.6721C73.761 24.6543 73.1864 24.0651 72.0373 24.0651C71.2539 24.0651 70.4704 24.3329 70.0003 24.7615L69.4257 23.7973C70.1048 23.2616 71.0449 22.9402 72.0896 22.9402C73.9177 22.9402 74.9101 23.7973 74.9101 25.6185ZM73.7088 27.6005V26.6898H71.8806C70.7315 26.6898 70.3659 27.1719 70.3659 27.7076C70.3659 28.3504 70.8882 28.7789 71.7762 28.7789C72.7163 28.7789 73.4476 28.3504 73.7088 27.6005Z" fill="white"/>
<path d="M76.4253 26.3149C76.4253 24.3329 77.8355 22.9402 79.8204 22.9402C80.9694 22.9402 81.9619 23.4223 82.4842 24.3329L81.5962 24.9222C81.1784 24.2794 80.5516 23.958 79.8204 23.958C78.5668 23.958 77.5744 24.8686 77.5744 26.3149C77.5744 27.7612 78.5146 28.6718 79.8204 28.6718C80.5516 28.6718 81.1784 28.3504 81.5962 27.7076L82.4842 28.2968C81.9619 29.2074 81.0217 29.7431 79.8204 29.7431C77.8355 29.7431 76.4253 28.2968 76.4253 26.3149Z" fill="white"/>
<path d="M90.0054 22.9939V29.636H88.8563V24.0652H85.2001V29.636H84.051V22.9939H90.0054Z" fill="white"/>
<path d="M98.9889 26.3149C98.9889 28.3504 97.6309 29.6895 95.6983 29.6895C94.7581 29.6895 93.9746 29.3146 93.4523 28.6182V32.0464H92.3032V22.9938H93.4523V24.0651C93.9746 23.3152 94.8103 22.9402 95.7505 22.9402C97.5786 22.9402 98.9889 24.2794 98.9889 26.3149ZM97.7876 26.3149C97.7876 24.9222 96.8474 23.958 95.5938 23.958C94.3403 23.958 93.4001 24.8686 93.4001 26.3149C93.4001 27.7076 94.3403 28.6718 95.5938 28.6718C96.8474 28.6718 97.7876 27.7612 97.7876 26.3149Z" fill="white"/>
<path d="M106.51 26.7435H101.235C101.392 27.9219 102.28 28.6718 103.585 28.6718C104.369 28.6718 104.996 28.404 105.466 27.8683L106.093 28.6718C105.518 29.3682 104.63 29.7431 103.533 29.7431C101.444 29.7431 100.034 28.3504 100.034 26.3685C100.034 24.3866 101.392 22.9939 103.272 22.9939C105.152 22.9939 106.458 24.3866 106.458 26.4221C106.51 26.4756 106.51 26.6363 106.51 26.7435ZM101.235 25.8329H105.414C105.309 24.708 104.473 23.9045 103.324 23.9045C102.175 23.958 101.339 24.708 101.235 25.8329Z" fill="white"/>
<path d="M114.815 28.5647V31.1359H113.718V29.5825H108.286V31.1359H107.189V28.5647H107.555C108.495 28.5111 108.651 26.9042 108.704 25.2436L108.808 22.9939H113.822V28.5647H114.815ZM109.017 28.5647H112.621V24.0116H109.801L109.748 25.2972C109.696 26.6899 109.592 28.0826 109.017 28.5647Z" fill="white"/>
<path d="M122.18 26.7435H116.904C117.061 27.9219 117.949 28.6718 119.255 28.6718C120.038 28.6718 120.665 28.404 121.135 27.8683L121.762 28.6718C121.187 29.3682 120.299 29.7431 119.202 29.7431C117.113 29.7431 115.703 28.3504 115.703 26.3685C115.703 24.3866 117.061 22.9939 118.941 22.9939C120.822 22.9939 122.127 24.3866 122.127 26.4221C122.18 26.4756 122.18 26.6363 122.18 26.7435ZM116.904 25.8329H121.083C120.978 24.708 120.143 23.9045 118.993 23.9045C117.844 23.958 117.009 24.708 116.904 25.8329Z" fill="white"/>
<path d="M129.439 22.9939V29.636H128.29V24.0652H125.522L125.47 25.565C125.365 27.9219 125.052 29.7967 123.589 29.7967C123.38 29.7967 123.119 29.7431 122.858 29.6896L122.91 28.6718C123.015 28.6718 123.119 28.7254 123.224 28.7254C124.268 28.7254 124.321 27.1184 124.425 25.5115L124.53 23.0474H129.439V22.9939Z" fill="white"/>
<path d="M137.536 26.7435H132.26C132.417 27.9219 133.305 28.6718 134.611 28.6718C135.394 28.6718 136.021 28.404 136.491 27.8683L137.118 28.6718C136.543 29.3682 135.655 29.7431 134.558 29.7431C132.469 29.7431 131.059 28.3504 131.059 26.3685C131.059 24.3866 132.417 22.9939 134.297 22.9939C136.178 22.9939 137.483 24.3866 137.483 26.4221C137.588 26.4756 137.536 26.6363 137.536 26.7435ZM132.312 25.8329H136.491C136.386 24.708 135.551 23.9045 134.402 23.9045C133.253 23.958 132.417 24.708 132.312 25.8329Z" fill="white"/>
<path d="M139.416 22.9939H140.565V25.8329H144.274V22.9939H145.423V29.636H144.274V26.8506H140.565V29.636H139.416V22.9939Z" fill="white"/>
<path d="M147.721 22.9939H148.871V25.8329H152.579V22.9939H153.728V29.636H152.579V26.8506H148.871V29.636H147.721V22.9939Z" fill="white"/>
<path d="M161.458 27.4398C161.458 28.8861 160.465 29.6896 158.741 29.6896H156.025V22.9939H157.174V25.2436H158.898C160.57 25.2436 161.458 26.0471 161.458 27.4398ZM160.256 27.3863C160.256 26.5292 159.682 26.1543 158.637 26.1007H157.174V28.7254H158.637C159.734 28.779 160.256 28.2969 160.256 27.3863ZM162.45 22.9939H163.599V29.636H162.45V22.9939Z" fill="white"/>
<path d="M169.919 29.636L168.039 27.1184L166.158 29.636H164.853L167.412 26.2614L164.957 22.9939H166.263L168.039 25.4043L169.815 22.9939H171.12L168.665 26.2614L171.225 29.636H169.919Z" fill="white"/>
<path d="M68.1722 39.4925C68.1722 41.528 66.8142 42.8672 64.8816 42.8672C63.9415 42.8672 63.158 42.4922 62.6357 41.7959V45.2241H61.4866V36.1714H62.6357V37.2428C63.158 36.4928 63.9937 36.1179 64.9338 36.1179C66.8142 36.1179 68.1722 37.457 68.1722 39.4925ZM67.0231 39.4925C67.0231 38.0998 66.0829 37.1356 64.8294 37.1356C63.5758 37.1356 62.6357 38.0463 62.6357 39.4925C62.6357 40.8852 63.5758 41.8494 64.8294 41.8494C66.0307 41.8494 67.0231 40.9388 67.0231 39.4925Z" fill="white"/>
<path d="M75.6935 39.9198H70.4704C70.6271 41.0983 71.515 41.8482 72.8208 41.8482C73.6043 41.8482 74.231 41.5804 74.7011 41.0447L75.3279 41.8482C74.7534 42.5446 73.8654 42.9195 72.7686 42.9195C70.6793 42.9195 69.269 41.5268 69.269 39.5449C69.269 37.5629 70.6271 36.1702 72.5074 36.1702C74.3877 36.1702 75.6935 37.5629 75.6935 39.5984C75.7458 39.652 75.6935 39.8127 75.6935 39.9198ZM70.4704 39.0628H74.6489C74.5444 37.9379 73.7087 37.1344 72.5596 37.1344C71.4105 37.1344 70.5748 37.9379 70.4704 39.0628Z" fill="white"/>
<path d="M83.3708 39.9198H78.0954C78.2521 41.0983 79.14 41.8482 80.4458 41.8482C81.2293 41.8482 81.856 41.5804 82.3261 41.0447L82.9529 41.8482C82.3784 42.5446 81.4904 42.9195 80.3936 42.9195C78.3043 42.9195 76.894 41.5268 76.894 39.5449C76.894 37.5629 78.2521 36.1702 80.1324 36.1702C82.0127 36.1702 83.3185 37.5629 83.3185 39.5984C83.423 39.652 83.3708 39.8127 83.3708 39.9198ZM78.1476 39.0628H82.3261C82.2217 37.9379 81.386 37.1344 80.2369 37.1344C79.0878 37.1344 78.2521 37.9379 78.1476 39.0628Z" fill="white"/>
<path d="M84.625 39.4925C84.625 37.5106 86.0353 36.1179 88.0201 36.1179C89.1692 36.1179 90.1615 36.6 90.6839 37.5106L89.7959 38.0998C89.3781 37.457 88.7513 37.1356 88.0201 37.1356C86.7665 37.1356 85.7741 38.0463 85.7741 39.4925C85.7741 40.9388 86.7143 41.8494 88.0201 41.8494C88.7513 41.8494 89.3781 41.528 89.7959 40.8852L90.6839 41.4745C90.1615 42.3851 89.2214 42.9207 88.0201 42.9207C86.0353 42.9207 84.625 41.4745 84.625 39.4925Z" fill="white"/>
<path d="M96.9523 37.2415H94.6018V42.8124H93.4527V37.2415H91.1023V36.1702H97.0045V37.2415H96.9523Z" fill="white"/>
<path d="M104.838 39.4925C104.838 41.528 103.48 42.8672 101.548 42.8672C100.607 42.8672 99.824 42.4922 99.3017 41.7959V45.2241H98.1526V36.1714H99.3017V37.2428C99.824 36.4928 100.66 36.1179 101.6 36.1179C103.48 36.1179 104.838 37.457 104.838 39.4925ZM103.637 39.4925C103.637 38.0998 102.697 37.1356 101.443 37.1356C100.19 37.1356 99.2495 38.0463 99.2495 39.4925C99.2495 40.8852 100.19 41.8494 101.443 41.8494C102.697 41.8494 103.637 40.9388 103.637 39.4925Z" fill="white"/>
<path d="M105.936 39.4925C105.936 37.5106 107.346 36.1179 109.331 36.1179C111.316 36.1179 112.674 37.5106 112.674 39.4925C112.674 41.4745 111.263 42.8672 109.331 42.8672C107.398 42.8672 105.936 41.4745 105.936 39.4925ZM111.472 39.4925C111.472 38.0998 110.532 37.1356 109.279 37.1356C108.025 37.1356 107.085 38.0463 107.085 39.4925C107.085 40.8852 108.025 41.8494 109.279 41.8494C110.532 41.8494 111.472 40.9388 111.472 39.4925Z" fill="white"/>
<path d="M120.038 40.9911C120.038 42.1696 119.203 42.8124 117.479 42.8124H114.345V36.1702H117.375C118.889 36.1702 119.83 36.7594 119.83 37.8843C119.83 38.5807 119.464 39.1163 118.785 39.3842C119.621 39.5984 120.038 40.1341 120.038 40.9911ZM115.494 39.0628H117.27C118.158 39.0628 118.628 38.7414 118.628 38.0986C118.628 37.4558 118.158 37.1344 117.27 37.1344H115.494V39.0628ZM118.837 40.9376C118.837 40.2412 118.419 39.9198 117.427 39.9198H115.494V41.9018H117.375C118.367 41.9018 118.837 41.5804 118.837 40.9376Z" fill="white"/>
<path d="M124.634 38.4203C124.634 35.8491 126.567 33.9207 129.178 33.9207C130.484 33.9207 131.633 34.4028 132.417 35.2599L131.633 36.0634C130.954 35.367 130.171 35.0456 129.23 35.0456C127.298 35.0456 125.888 36.4919 125.888 38.4203C125.888 40.3486 127.298 41.7949 129.23 41.7949C130.171 41.7949 130.954 41.4735 131.633 40.7236L132.417 41.5271C131.633 42.4377 130.484 42.9198 129.178 42.9198C126.567 42.9198 124.634 41.045 124.634 38.4203Z" fill="white"/>
<path d="M141.506 34.0813V42.8661H140.304V35.1526H135.342V42.8126H134.141V34.0813H141.506Z" fill="white"/>
<path d="M150.385 39.6531C150.385 41.5815 149.027 42.9206 147.042 42.9206C144.848 42.9206 143.595 41.3136 143.595 38.4747C143.595 35.7428 144.692 34.243 146.938 33.7609L149.915 33.0645L150.071 34.1894L147.355 34.7786C145.684 35.1536 144.901 36.0106 144.744 37.7247C145.318 36.8677 146.206 36.3856 147.303 36.3856C149.079 36.4392 150.385 37.7247 150.385 39.6531ZM149.184 39.7067C149.184 38.3675 148.348 37.5105 147.042 37.5105C145.736 37.5105 144.901 38.3675 144.901 39.7067C144.901 41.0458 145.788 41.9564 147.042 41.9564C148.296 41.9029 149.184 40.9922 149.184 39.7067Z" fill="white"/>
<path d="M157.802 35.1526H153.414V42.8126H152.213V34.0813H157.802V35.1526Z" fill="white"/>
<path d="M166.263 34.0813L162.45 41.3127C161.824 42.4912 160.988 43.0268 160.048 43.0268C159.682 43.0268 159.264 42.9197 158.899 42.759L159.212 41.7412C159.473 41.8484 159.787 41.9019 159.996 41.9019C160.518 41.9019 160.936 41.6341 161.301 41.0449L161.51 40.7235L158.063 34.0813H159.369L162.137 39.6522L165.01 34.0813H166.263Z" fill="white"/>
<path d="M50.8461 21.8149H35.6245V23.0469H50.8461V21.8149Z" fill="white"/>
<path d="M50.8469 26.5283H37.8923V27.7603H50.8469V26.5283Z" fill="white"/>
<path d="M48.5797 28.939H31.2529V30.171H48.5797V28.939Z" fill="white"/>
<path d="M50.6848 31.2429H31.2529V32.4749H50.6848V31.2429Z" fill="white"/>
<path d="M48.5797 33.5991H31.2529V34.8311H48.5797V33.5991Z" fill="white"/>
<path d="M44.3689 35.9031H35.6245V37.1351H44.3689V35.9031Z" fill="white"/>
<path d="M35.6252 40.5623H26.8809V41.7943H35.6252V40.5623Z" fill="white"/>
<path d="M37.8923 42.9192H26.8809V44.1512H37.8923V42.9192Z" fill="white"/>
<path d="M37.8921 45.2227H31.2529V46.4547H37.8921V45.2227Z" fill="white"/>
<path d="M35.6251 47.5796H31.2529V48.8116H35.6251V47.5796Z" fill="white"/>
<path d="M31.2525 50.0439H19.9172V51.2759H31.2525V50.0439Z" fill="white"/>
<path d="M29.2565 47.5793H22.2935V48.8113H29.2565V47.5793Z" fill="white"/>
<path d="M29.2565 52.4546H22.2935V53.6867H29.2565V52.4546Z" fill="white"/>
<path d="M48.4719 19.458H37.8923V20.6901H48.4719V19.458Z" fill="white"/>
<path d="M48.4719 24.1174H37.8923V25.3494H48.4719V24.1174Z" fill="white"/>
<path d="M30.874 24.1174H20.2944V25.3494H30.874V24.1174Z" fill="white"/>
<path d="M29.2562 21.8149H21.9692V23.0469H29.2562V21.8149Z" fill="white"/>
<path d="M29.2562 19.458H21.9692V20.69H29.2562V19.458Z" fill="white"/>
<path d="M30.8755 17.1003H26.7732V18.3324H30.8755V17.1003Z" fill="white"/>
<path d="M37.5141 14.7441H28.8237V15.9761H37.5141V14.7441Z" fill="white"/>
<path d="M37.5141 12.3865H28.8237V13.6185H37.5141V12.3865Z" fill="white"/>
<path d="M35.3017 10.0303H31.1995V11.2623H35.3017V10.0303Z" fill="white"/>
<path d="M28.8247 5.15601H22.2935V6.38802H28.8247V5.15601Z" fill="white"/>
<path d="M28.8247 2.79883H22.2935V4.03084H28.8247V2.79883Z" fill="white"/>
<path d="M35.3017 7.61963H31.1995V8.85164H35.3017V7.61963Z" fill="white"/>
<path d="M41.8325 2.79907H37.7302V4.03108H41.8325V2.79907Z" fill="white"/>
<path d="M50.5766 17.1003H39.9971V18.3324H50.5766V17.1003Z" fill="white"/>
<path d="M48.526 14.7441H42.3186V15.9761H48.526V14.7441Z" fill="white"/>
<path d="M50.6852 12.3865H44.4778V13.6185H50.6852V12.3865Z" fill="white"/>
<path d="M48.958 10.0303H46.637V11.2623H48.958V10.0303Z" fill="white"/>
<path d="M51.1704 7.61963H48.8494V8.85164H51.1704V7.61963Z" fill="white"/>
<path d="M39.8352 10.0303H37.5142V11.2623H39.8352V10.0303Z" fill="white"/>
<path d="M29.2019 10.0303H26.8809V11.2623H29.2019V10.0303Z" fill="white"/>
<path d="M26.8806 7.61963H24.5596V8.85165H26.8806V7.61963Z" fill="white"/>
<path d="M26.8806 0.388184H24.5596V1.62019H26.8806V0.388184Z" fill="white"/>
<path d="M39.8352 7.61963H37.5142V8.85165H39.8352V7.61963Z" fill="white"/>
<path d="M37.6763 5.15601H35.3552V6.38802H37.6763V5.15601Z" fill="white"/>
<path d="M43.991 5.15601H41.6699V6.38802H43.991V5.15601Z" fill="white"/>
<path d="M33.5739 26.5283H31.2529V27.7603H33.5739V26.5283Z" fill="white"/>
<path d="M26.7185 45.2224H24.3975V46.4544H26.7185V45.2224Z" fill="white"/>
<path d="M26.7185 54.8115H24.3975V56.0435H26.7185V54.8115Z" fill="white"/>
<path d="M33.5739 35.9031H31.2529V37.1351H33.5739V35.9031Z" fill="white"/>
<path d="M33.5739 38.2063H31.2529V39.4383H33.5739V38.2063Z" fill="white"/>
<path d="M37.9455 38.2061H35.6245V39.4381H37.9455V38.2061Z" fill="white"/>
<path d="M42.102 38.2063H39.781V39.4383H42.102V38.2063Z" fill="white"/>
<path d="M15.5446 21.8154H0.322998V23.0474H15.5446V21.8154Z" fill="white"/>
<path d="M13.2241 26.5291H0.269531V27.7611H13.2241V26.5291Z" fill="white"/>
<path d="M19.9178 28.9397H2.59106V30.1717H19.9178V28.9397Z" fill="white"/>
<path d="M19.9172 31.2429H0.485352V32.4749H19.9172V31.2429Z" fill="white"/>
<path d="M19.9178 33.5991H2.59106V34.8311H19.9178V33.5991Z" fill="white"/>
<path d="M15.5456 35.9041H6.80127V37.1361H15.5456V35.9041Z" fill="white"/>
<path d="M24.2902 40.564H15.5459V41.7961H24.2902V40.564Z" fill="white"/>
<path d="M24.2897 42.9209H13.2783V44.1529H24.2897V42.9209Z" fill="white"/>
<path d="M19.9175 45.2251H13.2783V46.4571H19.9175V45.2251Z" fill="white"/>
<path d="M19.9181 47.5813H15.5459V48.8133H19.9181V47.5813Z" fill="white"/>
<path d="M13.2783 19.459H2.69873V20.6911H13.2783V19.459Z" fill="white"/>
<path d="M13.2783 24.1201H2.69873V25.3521H13.2783V24.1201Z" fill="white"/>
<path d="M24.3967 17.1028H20.2944V18.3348H24.3967V17.1028Z" fill="white"/>
<path d="M22.3474 14.7451H13.657V15.9771H22.3474V14.7451Z" fill="white"/>
<path d="M22.3478 12.3875H13.6575V13.6196H22.3478V12.3875Z" fill="white"/>
<path d="M19.9177 10.0312H15.8154V11.2632H19.9177V10.0312Z" fill="white"/>
<path d="M19.9177 7.62061H15.8154V8.85261H19.9177V7.62061Z" fill="white"/>
<path d="M13.4399 2.7998H9.33765V4.03182H13.4399V2.7998Z" fill="white"/>
<path d="M11.1191 17.1028H0.539551V18.3348H11.1191V17.1028Z" fill="white"/>
<path d="M8.90614 14.7451H2.69873V15.9771H8.90614V14.7451Z" fill="white"/>
<path d="M6.69274 12.3875H0.485352V13.6195H6.69274V12.3875Z" fill="white"/>
<path d="M4.48022 10.0312H2.15918V11.2632H4.48022V10.0312Z" fill="white"/>
<path d="M2.32102 7.62061H0V8.85261H2.32102V7.62061Z" fill="white"/>
<path d="M13.6558 10.0312H11.3347V11.2632H13.6558V10.0312Z" fill="white"/>
<path d="M24.2358 10.0312H21.9148V11.2632H24.2358V10.0312Z" fill="white"/>
<path d="M13.6558 7.62036H11.3347V8.85237H13.6558V7.62036Z" fill="white"/>
<path d="M15.8159 5.15698H13.4949V6.38899H15.8159V5.15698Z" fill="white"/>
<path d="M9.44602 5.15698H7.125V6.38899H9.44602V5.15698Z" fill="white"/>
<path d="M19.9182 26.5291H17.5972V27.7611H19.9182V26.5291Z" fill="white"/>
<path d="M19.8635 35.9041H17.5425V37.1361H19.8635V35.9041Z" fill="white"/>
<path d="M19.863 38.207H17.542V39.439H19.863V38.207Z" fill="white"/>
<path d="M15.4919 38.207H13.1709V39.439H15.4919V38.207Z" fill="white"/>
<path d="M11.3357 38.207H9.01465V39.439H11.3357V38.207Z" fill="white"/>
</g>
<defs>
<clipPath id="clip0_2_124">
<rect width="178" height="57" fill="white"/>
</clipPath>
</defs>
</svg>
